<svg width="150" height="150" viewBox="0 0 150 150" fill="none" xmlns="http://www.w3.org/2000/svg">
<path opacity="0.1" d="M79.1026 132.218C108.392 132.218 132.136 108.475 132.136 79.185C132.136 49.8953 108.392 26.1514 79.1026 26.1514C49.8129 26.1514 26.069 49.8953 26.069 79.185C26.069 108.475 49.8129 132.218 79.1026 132.218Z" fill="#003154"/>
<path d="M74.8161 127.932C104.106 127.932 127.85 104.188 127.85 74.8984C127.85 45.6088 104.106 21.8649 74.8161 21.8649C45.5264 21.8649 21.7825 45.6088 21.7825 74.8984C21.7825 104.188 45.5264 127.932 74.8161 127.932Z" fill="white"/>
<mask id="mask0_13_1086" style="mask-type:luminance" maskUnits="userSpaceOnUse" x="21" y="21" width="108" height="108">
<path d="M112.5 112.5C133.211 91.7893 133.211 58.2107 112.5 37.5C91.7893 16.7893 58.2107 16.7893 37.5 37.5C16.7893 58.2107 16.7893 91.7893 37.5 112.5C58.2107 133.211 91.7893 133.211 112.5 112.5Z" fill="white"/>
</mask>
<g mask="url(#mask0_13_1086)">
<path d="M103.519 173.999C117.645 159.873 117.645 136.97 103.519 122.845C89.3931 108.719 66.4906 108.719 52.3648 122.845C38.2389 136.97 38.2389 159.873 52.3648 173.999C66.4906 188.125 89.3931 188.125 103.519 173.999Z" fill="#FFB199"/>
<path d="M86.7037 101.887H68.7638V114.345H86.7037V101.887Z" fill="#FFB199"/>
<g opacity="0.5">
<path d="M86.7037 101.887H68.7638V114.345H86.7037V101.887Z" fill="#FF8255"/>
</g>
<path d="M104.329 174.809C118.902 160.236 118.902 136.608 104.329 122.034C89.7558 107.461 66.1278 107.461 51.5545 122.034C36.9813 136.608 36.9813 160.236 51.5545 174.809C66.1278 189.382 89.7558 189.382 104.329 174.809Z" fill="#F74141"/>
<path d="M87.985 106.954H67.1357V120.242H87.985V106.954Z" fill="#F74141"/>
<path d="M77.8088 53.4927C84.3073 53.4927 89.5753 48.2246 89.5753 41.7262C89.5753 35.2277 84.3073 29.9596 77.8088 29.9596C71.3103 29.9596 66.0422 35.2277 66.0422 41.7262C66.0422 48.2246 71.3103 53.4927 77.8088 53.4927Z" fill="#ED4F4F"/>
<path d="M109.74 75.4705C109.495 57.91 95.1862 43.7493 77.5674 43.7493C59.9486 43.7493 45.6395 57.91 45.3945 75.4705H45.3889V79.1306H109.746V75.4705H109.74Z" fill="#FF6757"/>
<path d="M49.7635 88.6318C53.9005 88.6318 57.2543 85.278 57.2543 81.1409C57.2543 77.0039 53.9005 73.6501 49.7635 73.6501C45.6264 73.6501 42.2726 77.0039 42.2726 81.1409C42.2726 85.278 45.6264 88.6318 49.7635 88.6318Z" fill="#FFB199"/>
<path opacity="0.5" d="M49.7635 88.6318C53.9005 88.6318 57.2543 85.278 57.2543 81.1409C57.2543 77.0039 53.9005 73.6501 49.7635 73.6501C45.6264 73.6501 42.2726 77.0039 42.2726 81.1409C42.2726 85.278 45.6264 88.6318 49.7635 88.6318Z" fill="#FF8255"/>
<path d="M106.172 88.6318C110.309 88.6318 113.663 85.278 113.663 81.1409C113.663 77.0038 110.309 73.6501 106.172 73.6501C102.035 73.6501 98.6814 77.0038 98.6814 81.1409C98.6814 85.278 102.035 88.6318 106.172 88.6318Z" fill="#FFB199"/>
<path opacity="0.5" d="M106.172 88.6318C110.309 88.6318 113.663 85.278 113.663 81.1409C113.663 77.0038 110.309 73.6501 106.172 73.6501C102.035 73.6501 98.6814 77.0038 98.6814 81.1409C98.6814 85.278 102.035 88.6318 106.172 88.6318Z" fill="#FF8255"/>
<path d="M97.5826 98.6486C108.545 87.6858 108.545 69.9114 97.5823 58.9485C86.6194 47.9855 68.845 47.9854 57.8822 58.9482C46.9195 69.911 46.9196 87.6853 57.8825 98.6483C68.8455 109.611 86.6198 109.611 97.5826 98.6486Z" fill="#FFB199"/>
<path d="M101.409 70.2756C101.227 57.2627 90.6237 46.769 77.5674 46.769C64.5115 46.769 53.908 57.2623 53.7265 70.2756H53.7221V72.9875H101.413V70.2756H101.409Z" fill="#FF6757"/>
<path d="M59.7108 85.7746C61.2703 85.7746 62.5345 84.5104 62.5345 82.9509C62.5345 81.3914 61.2703 80.1271 59.7108 80.1271C58.1513 80.1271 56.887 81.3914 56.887 82.9509C56.887 84.5104 58.1513 85.7746 59.7108 85.7746Z" fill="#001433"/>
<path d="M92.9329 82.9509C92.9329 84.5106 94.1974 85.7747 95.7567 85.7747C97.3164 85.7747 98.5804 84.5102 98.5804 82.9509C98.5804 81.3912 97.316 80.1271 95.7567 80.1271C94.197 80.1271 92.9329 81.3916 92.9329 82.9509Z" fill="#001433"/>
<path d="M70.9462 83.4534C70.9458 83.4743 70.9446 83.4948 70.9446 83.5161C70.9446 87.0801 73.8336 89.9691 77.3976 89.9691C80.9616 89.9691 83.8505 87.0801 83.8505 83.5161C83.8505 83.4952 83.8493 83.4743 83.8489 83.4534" stroke="#001433" stroke-width="1.51282" stroke-miterlimit="10" stroke-linecap="round" stroke-linejoin="round"/>
</g>
</svg>
