<svg width="132" height="140" viewBox="0 0 132 140" fill="none" xmlns="http://www.w3.org/2000/svg">
<path opacity="0.1" d="M74.8917 140C106.355 140 131.862 114.494 131.862 83.0302C131.862 51.5666 106.355 26.0603 74.8917 26.0603C43.4281 26.0603 17.9219 51.5666 17.9219 83.0302C17.9219 114.494 43.4281 140 74.8917 140Z" fill="#003154"/>
<path d="M70.2875 135.395C101.751 135.395 127.257 109.889 127.257 78.4254C127.257 46.9618 101.751 21.4556 70.2875 21.4556C38.824 21.4556 13.3177 46.9618 13.3177 78.4254C13.3177 109.889 38.824 135.395 70.2875 135.395Z" fill="white"/>
<mask id="mask0_13_963" style="mask-type:luminance" maskUnits="userSpaceOnUse" x="13" y="21" width="115" height="115">
<path d="M70.2875 135.395C101.751 135.395 127.257 109.889 127.257 78.4254C127.257 46.9618 101.751 21.4556 70.2875 21.4556C38.824 21.4556 13.3177 46.9618 13.3177 78.4254C13.3177 109.889 38.824 135.395 70.2875 135.395Z" fill="white"/>
</mask>
<g mask="url(#mask0_13_963)">
<path d="M100.921 184.773C116.096 169.599 116.096 144.997 100.921 129.822C85.7471 114.648 61.1447 114.648 45.9704 129.822C30.7961 144.997 30.7961 169.599 45.9704 184.773C61.1447 199.948 85.7471 199.948 100.921 184.773Z" fill="#C0E4F9"/>
<path d="M82.8588 107.309H63.5873V120.691H82.8588V107.309Z" fill="#C0E4F9"/>
<g opacity="0.2">
<path d="M82.8588 107.309H63.5873V120.691H82.8588V107.309Z" fill="#22689E"/>
</g>
<path d="M101.792 185.644C117.447 169.989 117.447 144.607 101.792 128.952C86.1367 113.297 60.755 113.297 45.1 128.952C29.4451 144.607 29.4451 169.989 45.1 185.644C60.755 201.299 86.1367 201.299 101.792 185.644Z" fill="#22689E"/>
<path d="M84.2352 112.751H61.8383V127.026H84.2352V112.751Z" fill="#22689E"/>
<path d="M107.606 78.9311C107.342 60.0668 91.9713 44.8555 73.0447 44.8555C54.1181 44.8555 38.747 60.0672 38.4838 78.9311H38.4777V82.8625H107.612V78.9311H107.606Z" fill="#22689E"/>
<path d="M43.1766 93.0694C47.6208 93.0694 51.2235 89.4666 51.2235 85.0225C51.2235 80.5783 47.6208 76.9756 43.1766 76.9756C38.7325 76.9756 35.1298 80.5783 35.1298 85.0225C35.1298 89.4666 38.7325 93.0694 43.1766 93.0694Z" fill="#C0E4F9"/>
<path opacity="0.2" d="M43.1766 93.0694C47.6208 93.0694 51.2235 89.4666 51.2235 85.0225C51.2235 80.5783 47.6208 76.9756 43.1766 76.9756C38.7325 76.9756 35.1298 80.5783 35.1298 85.0225C35.1298 89.4666 38.7325 93.0694 43.1766 93.0694Z" fill="#22689E"/>
<path d="M103.772 93.0693C108.216 93.0693 111.819 89.4666 111.819 85.0224C111.819 80.5783 108.216 76.9756 103.772 76.9756C99.3282 76.9756 95.7255 80.5783 95.7255 85.0224C95.7255 89.4666 99.3282 93.0693 103.772 93.0693Z" fill="#C0E4F9"/>
<path opacity="0.2" d="M103.772 93.0693C108.216 93.0693 111.819 89.4666 111.819 85.0224C111.819 80.5783 108.216 76.9756 103.772 76.9756C99.3282 76.9756 95.7255 80.5783 95.7255 85.0224C95.7255 89.4666 99.3282 93.0693 103.772 93.0693Z" fill="#22689E"/>
<path d="M73.2232 112.662C89.8781 112.662 103.38 99.1609 103.38 82.506C103.38 65.8511 89.8781 52.3497 73.2232 52.3497C56.5683 52.3497 43.0669 65.8511 43.0669 82.506C43.0669 99.1609 56.5683 112.662 73.2232 112.662Z" fill="#C0E4F9"/>
<path d="M113.933 54.7495C113.933 54.7495 106.334 59.1087 97.5253 53.271C83.4144 43.9199 68.9758 35.8799 57.1617 48.0215C50.2705 56.718 51.3781 67.2191 60.7306 75.8334C66.3318 81.4347 85.4961 85.9304 99.4143 77.6882V89.001H103.801V74.4777C108.609 70.1829 112.342 63.8296 113.933 54.7495Z" fill="#22689E"/>
<path d="M55.9314 66.9732C55.9314 61.7552 52.7144 57.291 48.1568 55.4487C42.3995 61.4251 38.7767 69.4655 38.5062 78.3538C38.5412 78.3693 38.5775 78.3823 38.6129 78.3974C39.9103 77.502 41.4807 76.9752 43.1766 76.9752V89.0005H47.5634V78.7207C52.433 77.0383 55.9314 72.4154 55.9314 66.9732Z" fill="#22689E"/>
<path d="M50.829 86.9667C50.829 88.6422 52.1873 90.0001 53.8623 90.0001C55.5378 90.0001 56.8957 88.6418 56.8957 86.9667C56.8957 85.2917 55.5374 83.9334 53.8623 83.9334C52.1873 83.9334 50.829 85.2917 50.829 86.9667Z" fill="#001433"/>
<path d="M89.5503 86.9667C89.5503 88.6422 90.9086 90.0001 92.5837 90.0001C94.2592 90.0001 95.617 88.6418 95.617 86.9667C95.617 85.2917 94.2587 83.9334 92.5837 83.9334C90.9082 83.9334 89.5503 85.2917 89.5503 86.9667Z" fill="#001433"/>
<path d="M66.293 87.1452C66.2926 87.1677 66.2913 87.1897 66.2913 87.2126C66.2913 91.0412 69.3946 94.1445 73.2232 94.1445C77.0513 94.1445 80.155 91.0412 80.155 87.2126C80.155 87.1902 80.1538 87.1677 80.1533 87.1452" stroke="#001433" stroke-width="1.6251" stroke-miterlimit="10" stroke-linecap="round" stroke-linejoin="round"/>
</g>
<path opacity="0.1" d="M31.6098 58.6142C46.5243 58.6142 58.6148 46.5237 58.6148 31.6093C58.6148 16.6948 46.5243 4.60428 31.6098 4.60428C16.6954 4.60428 4.60486 16.6948 4.60486 31.6093C4.60486 46.5237 16.6954 58.6142 31.6098 58.6142Z" fill="#003154"/>
<path d="M27.005 54.01C41.9194 54.01 54.01 41.9194 54.01 27.005C54.01 12.0905 41.9194 0 27.005 0C12.0905 0 0 12.0905 0 27.005C0 41.9194 12.0905 54.01 27.005 54.01Z" fill="#22689E"/>
<path opacity="0.2" d="M37.2629 13.1057L37.6813 16.9688L39.954 16.7229L33.7853 22.892C31.5048 21.1906 28.7493 20.2701 25.8521 20.2701C22.2989 20.2701 18.9582 21.6539 16.4456 24.1665C13.933 26.6786 12.5493 30.0197 12.5493 33.5729C12.5493 37.1262 13.933 40.4668 16.4456 42.9794C18.9582 45.492 22.2984 46.8758 25.8521 46.8758C29.4053 46.8758 32.746 45.492 35.2585 42.9794C39.9773 38.2602 40.3879 30.8568 36.5205 25.6527L42.7017 19.4715L42.4558 21.7442L46.3189 22.1625L47.4179 12.0072L37.2629 13.1057ZM32.5109 40.2317C30.7325 42.0101 28.3677 42.9893 25.8521 42.9893C23.3365 42.9893 20.9721 42.0101 19.1933 40.2317C17.4146 38.4529 16.4353 36.0881 16.4353 33.5729C16.4353 31.0573 17.415 28.693 19.1933 26.9142C20.9717 25.1354 23.3365 24.1561 25.8521 24.1561C28.3677 24.1561 30.7321 25.1358 32.5109 26.9142C36.1821 30.5858 36.1816 36.5596 32.5109 40.2317Z" fill="#003154"/>
<path d="M22.8736 44.4393C19.3204 44.4393 15.9798 43.0555 13.4672 40.5429C10.9542 38.0303 9.5708 34.6897 9.5708 31.1364C9.5708 27.5832 10.9546 24.2426 13.4672 21.73C15.9794 19.2174 19.3204 17.8336 22.8736 17.8336C26.4269 17.8336 29.7675 19.2174 32.2801 21.73C37.4669 26.9168 37.4669 35.3556 32.2801 40.5429C29.7675 43.0555 26.4269 44.4393 22.8736 44.4393ZM22.8736 21.72C20.358 21.72 17.9937 22.6998 16.2149 24.4781C14.4365 26.2565 13.4568 28.6213 13.4568 31.1369C13.4568 33.6521 14.4365 36.0169 16.2149 37.7956C17.9937 39.574 20.358 40.5533 22.8736 40.5533C25.3893 40.5533 27.7536 39.574 29.5324 37.7956C33.2036 34.124 33.2041 28.1498 29.5324 24.4785C27.7536 22.6993 25.3893 21.72 22.8736 21.72Z" fill="white"/>
<path d="M41.0133 10.2487L30.0237 21.2383L32.7715 23.9861L43.7611 12.9965L41.0133 10.2487Z" fill="white"/>
<path d="M43.3404 19.726L39.4769 19.3077L40.0564 13.9536L34.7028 14.5327L34.2844 10.6696L44.4394 9.57065L43.3404 19.726Z" fill="white"/>
</svg>
